<?xml version="1.0" encoding="UTF-8"?>
<svg width="662px" height="662px" viewBox="0 0 662 662" version="1.1" xmlns="http://www.w3.org/2000/svg" xmlns:xlink="http://www.w3.org/1999/xlink">
    <!-- Generator: Sketch 48 (47235) - http://www.bohemiancoding.com/sketch -->
    <title>FEWD-LOGO</title>
    <desc>Created with Sketch.</desc>
    <defs></defs>
    <g id="Artboard" stroke="none" stroke-width="1" fill="none" fill-rule="evenodd" transform="translate(-6.000000, -6.000000)">
        <path d="M509,422 L533,422 L533,385 L520,385 L520,270 L533,270 L533,233 L509,233 L483,233 L483,422 L509,422 Z M239,385 L239,346 L284,346 L284,309 L239,309 L239,270 L289,270 L289,233 L213,233 L202,233 L202,422 L213,422 L289,422 L289,385 L239,385 Z M137,346 L180,346 L180,309 L137,309 L137,270 L186,270 L186,233 L110,233 L100,233 L100,422 L137,422 L137,346 Z M337,668 C154.193748,668 6,519.806252 6,337 C6,154.193748 154.193748,6 337,6 C519.806252,6 668,154.193748 668,337 C668,519.806252 519.806252,668 337,668 Z M300,234 L328,421 L368,421 L385,332 L385,234 L370,234 L352,340 L342,234 L300,234 Z M470,234 L428,234 L418,340 L400,234 L385,234 L385,332 L402,421 L442,421 L470,234 Z M533,233 C533,254.333333 533,266.666667 533,270 C535.666667,270 537.666667,273.666667 539,281 L539,325 L576,325 C576,304.333333 576,287.666667 576,275 C576,247 561.666667,233 533,233 Z M533,422 C561.666667,422 576,408 576,380 C576,367.333333 576,349 576,325 L539,325 L539,374 C537.666667,381.333333 535.666667,385 533,385 C533,388.333333 533,400.666667 533,422 Z" id="FEWD-LOGO" fill="#1C1A1A"></path>
    </g>
</svg>